<svg width="84" height="100" viewBox="0 0 84 100" fill="none" xmlns="http://www.w3.org/2000/svg">
<path fill-rule="evenodd" clip-rule="evenodd" d="M0 0H84V100H0V0ZM4 4H80V80H4V4ZM80 84H4V96H80V84Z" fill="#343434"/>
<path fill-rule="evenodd" clip-rule="evenodd" d="M40.6754 45.7512C42.5744 45.7512 37.4577 64.7134 39.4006 64.1976C40.4195 63.9271 42.4864 65.5402 43.8024 64.1976C44.2704 63.7202 41.4764 63.2637 41.5798 62.5508C41.9402 60.0654 43.1882 53.2756 45.361 50.0616C46.5315 48.3301 48.1647 64.8534 49.3495 64.8534C50.134 64.8534 52.2079 65.5872 54.2195 64.8534C55.4152 64.4173 51.9474 63.8442 51.4594 62.5508C50.6013 60.2769 49.4749 52.7203 50.134 50.0616C50.9327 46.8399 50.9177 45.4088 52.2079 43.3717C53.0488 42.0439 57.1295 45.7512 61.5493 43.3717C69.4517 39.1171 68.2544 32.3734 68.8398 27.7759C68.9969 26.5425 73.1477 25.4553 72.9959 24.5352C72.6434 22.3976 69.3893 21.9311 67.4094 21.113C65.5399 20.3405 65.0929 19.3555 64.929 19.0973C64.7272 18.7794 61.0709 19.1058 59.5485 22.136C58.217 24.7861 59.3524 29.4336 57.4396 30.9038C54.7849 32.9442 51.4848 28.7286 49.7883 27.205C47.5753 25.2176 45.4649 20.4665 42.8837 20.4665C40.5675 20.4665 39.7019 25.3836 37.3739 25.3836C35.0981 25.3836 31.4156 19.9608 29.4974 21.113C27.7942 22.136 20.1217 27.0199 17.5079 31.8998C14.7988 36.9578 16.5255 42.9656 16.5255 43.9183C16.5255 44.5311 16.5703 46.4023 15.8645 48.5269C15.4738 49.7033 15.1969 51.3031 15.0513 52.7582C14.8078 55.1931 15.4898 57.2117 15.8645 59.5457C16.4874 63.425 15.4973 66.232 18.2133 65.9849C19.0009 65.9132 20.3685 65.9849 21.6651 65.5872C22.0413 65.4718 19.2416 64.5538 19.1544 64.1976C18.6523 62.1477 17.5079 58.2294 18.2133 55.3563C18.514 54.1318 18.3299 50.8937 19.672 50.0616C20.3547 49.6382 19.1544 53.6442 19.9296 54.2699C20.7048 54.8956 22.7784 64.7136 23.9237 64.1976C24.8349 63.7871 27.3339 64.8667 28.2767 64.1976C28.8589 63.7844 25.8826 62.5633 25.6435 61.9095C25.3131 61.006 22.8589 54.6437 23.3923 53.4778C24.5334 50.9833 23.3175 45.8 26.1485 44.1927C28.8092 42.6822 31.2612 45.0283 34.4943 45.7512C38.3671 46.6173 40.3141 45.7512 40.6754 45.7512Z" fill="#343434"/>
</svg>
