<svg width="210" height="210" viewBox="0 0 210 210" fill="none" xmlns="http://www.w3.org/2000/svg">
<defs>
  <clipPath id="ie">
    <path d="M209.121 156.304C209.121 166.277 208.149 184.552 195.505 196.837C182.44 209.471 163.467 209.253 154.307 209.18C116.303 208.831 64.3049 209.253 0.200005 209.18C-0.250006 139.628 0.200005 84.7887 0.200005 50.1579C0.200005 42.1763 0.199998 24.5265 11.9438 12.4595C22.4828 1.68647 37.4638 0 45.3318 0H209.194C209.146 52.1061 209.121 104.207 209.121 156.304Z"/>
  </clipPath>
</defs>
<rect width="210" height="210" fill="#E0D9C9" clip-path="url(#ie)"/>
<path d="M209.121 156.304C209.121 166.277 208.149 184.552 195.505 196.837C182.44 209.471 163.467 209.253 154.307 209.18C116.303 208.831 64.3049 209.253 0.200005 209.18C-0.250006 139.628 0.200005 84.7887 0.200005 50.1579C0.200005 42.1763 0.199998 24.5265 11.9438 12.4595C22.4828 1.68647 37.4638 0 45.3318 0H209.194C209.146 52.1061 209.121 104.207 209.121 156.304ZM77.602 65.3071H197.508V11.5145H77.6165L77.602 65.3071ZM77.602 130.425H197.508V76.9815H77.6165L77.602 130.425ZM77.602 197.593H157.065C185.895 198.611 197.9 183.418 197.465 156.26V142.012H77.6165L77.602 197.593ZM65.9888 11.5H47.2915C23.8329 11.5 11.6535 23.1308 11.7116 47.3229V197.637H65.9888V11.5Z" fill="#333333"/>
</svg>
