<svg width="720" height="720" viewBox="0 0 720 720" fill="none" xmlns="http://www.w3.org/2000/svg">
<rect width="720" height="720" rx="360" fill="#D0FC4C"/>
<path d="M540.812 145.509C521.472 143.436 502.307 137.081 483.315 133.14C432.133 122.519 379.258 114.676 326.899 119.41C285.068 123.193 245.494 136.697 208.319 155.898C173.463 173.901 138.23 195.525 117.56 229.987C91.347 273.688 89.0755 327.269 91.9642 376.804C94.6054 422.096 100.872 471.962 126.215 510.881C145.975 541.226 178.44 561.327 211.781 573.715C263.428 592.904 321.476 601.922 376.482 600.926C415.079 600.227 453.714 592.477 486.407 570.993C522.491 547.281 550.628 510.288 576.671 476.496C598.804 447.777 618.039 418.704 623.905 382.246C629.534 347.266 629.873 308.01 621.679 273.401C609.245 220.884 556.851 167.887 502.976 154.414" stroke="black" stroke-width="12" stroke-linecap="round"/>
<path d="M275 340C275.981 286.862 295 237.148 295 184" stroke="black" stroke-width="12" stroke-linecap="round"/>
<path d="M400 317C400 265.319 410.063 211.14 423 161" stroke="black" stroke-width="12" stroke-linecap="round"/>
<path d="M107 463.8C141.349 469.508 175.38 472.145 209.702 479.308C269.958 491.882 332.591 500.405 394.246 495.677C416.169 493.995 438.169 489.977 459.545 484.846C469.297 482.505 477.492 478.765 481.271 468.969C483.015 464.449 494.773 436.685 491.393 435" stroke="black" stroke-width="12" stroke-linecap="round"/>
</svg>
