<svg xmlns="http://www.w3.org/2000/svg" viewBox="0 0 80 80" width="32px" height="32px " fill="#FF002B"><path d="m42.54,18.18v2.11c9.26.51,16.67,7.91,17.18,17.18h2.11c.52-9.6,8.45-17.23,18.18-17.23v-2.01c-10.07,0-18.23-8.16-18.23-18.23h-2.01c0,9.73-7.63,17.66-17.23,18.18Z"></path><path d="m37.46,61.82v-2.11c-9.26-.51-16.67-7.91-17.18-17.18h-2.11c-.52,9.6-8.45,17.23-18.18,17.23v2.01c10.07,0,18.23,8.16,18.23,18.23h2.01c0-9.73,7.63-17.66,17.23-18.18Z"></path><path d="m61.82,42.54h-2.11c-.51,9.26-7.91,16.67-17.18,17.18v2.11c9.6.52,17.23,8.45,17.23,18.18h2.01c0-10.07,8.16-18.23,18.23-18.23v-2.01c-9.73,0-17.66-7.63-18.18-17.23Z"></path><path d="m18.18,37.46h2.11c.51-9.26,7.91-16.67,17.18-17.18v-2.11c-9.6-.52-17.23-8.45-17.23-18.18h-2.01c0,10.07-8.16,18.23-18.23,18.23v2.01c9.73,0,17.66,7.63,18.18,17.23Z"></path></svg>
