<svg width="23" height="22" viewBox="0 0 23 22" fill="none" xmlns="http://www.w3.org/2000/svg">
<path d="M11.4999 0C10.8526 0 10.2117 0.127486 9.61373 0.375163C9.01586 0.622853 8.4725 0.985886 8.01483 1.44355C7.55717 1.90121 7.19414 2.44453 6.94645 3.04249C6.69877 3.64045 6.57129 4.28134 6.57129 4.92857C6.57129 5.57581 6.69877 6.21669 6.94645 6.81465C7.19414 7.41261 7.55717 7.95594 8.01483 8.4136C8.4725 8.8713 9.01586 9.23431 9.61373 9.48192C10.2117 9.72966 10.8526 9.85715 11.4999 9.85715C12.1471 9.85715 12.788 9.72966 13.386 9.48192C13.9839 9.23431 14.5272 8.8713 14.985 8.4136C15.4426 7.95594 15.8056 7.41261 16.0532 6.81465C16.301 6.21669 16.4284 5.57581 16.4284 4.92857C16.4284 4.28134 16.301 3.64045 16.0532 3.04249C15.8056 2.44453 15.4426 1.90121 14.985 1.44355C14.5272 0.985886 13.9839 0.622853 13.386 0.375163C12.788 0.127486 12.1471 0 11.4999 0Z" fill="#5221E8"/>
<path d="M4.92857 11.8286C4.28134 11.8286 3.64045 11.9561 3.04249 12.2038C2.44453 12.4514 1.90121 12.8144 1.44355 13.2721C0.985885 13.7298 0.622853 14.2732 0.375163 14.871C0.127486 15.469 0 16.1099 0 16.7572C0 17.4044 0.127486 18.0453 0.375163 18.6433C0.622853 19.2412 0.985885 19.7845 1.44355 20.2421C1.90121 20.6999 2.44453 21.0629 3.04249 21.3105C3.64045 21.5582 4.28134 21.6857 4.92857 21.6857C5.57581 21.6857 6.21669 21.5582 6.81465 21.3105C7.41261 21.0629 7.95594 20.6999 8.4136 20.2421C8.87126 19.7845 9.2343 19.2412 9.48192 18.6433C9.72966 18.0453 9.85714 17.4044 9.85714 16.7572C9.85714 16.1099 9.72966 15.469 9.48192 14.871C9.2343 14.2732 8.87126 13.7298 8.4136 13.2721C7.95594 12.8144 7.41261 12.4514 6.81465 12.2038C6.21669 11.9561 5.57581 11.8286 4.92857 11.8286Z" fill="#5221E8"/>
<path d="M18.0716 11.8286C17.4244 11.8286 16.7835 11.9561 16.1855 12.2038C15.5876 12.4514 15.0443 12.8144 14.5865 13.2721C14.1289 13.7298 13.7659 14.2732 13.5183 14.871C13.2706 15.469 13.1431 16.1099 13.1431 16.7572C13.1431 17.4044 13.2706 18.0453 13.5183 18.6433C13.7659 19.2412 14.1289 19.7845 14.5865 20.2421C15.0443 20.6999 15.5876 21.0629 16.1855 21.3105C16.7835 21.5582 17.4244 21.6857 18.0716 21.6857C18.7189 21.6857 19.3598 21.5582 19.9578 21.3105C20.5556 21.0629 21.099 20.6999 21.5567 20.2421C22.0144 19.7845 22.3774 19.2412 22.625 18.6433C22.8727 18.0453 23.0002 17.4044 23.0002 16.7572C23.0002 16.1099 22.8727 15.469 22.625 14.871C22.3774 14.2732 22.0144 13.7298 21.5567 13.2721C21.099 12.8144 20.5556 12.4514 19.9578 12.2038C19.3598 11.9561 18.7189 11.8286 18.0716 11.8286Z" fill="#5221E8"/>
</svg>
