<svg width="4728" height="1109" viewBox="0 0 4728 1109" fill="none" xmlns="http://www.w3.org/2000/svg">
<path d="M4116 408.648V1083.35L3540 891.351V216.648L4116 408.648ZM4716 891.351L4140 1083.35V408.648L4716 216.648V891.351ZM4690.05 200L4128 387.351L3565.95 200L4128 12.6484L4690.05 200Z" fill="#202020" stroke="white" stroke-width="24"/>
<path d="M3721.66 825.769L3831.94 717.604L3939.26 899.636L4049.49 937.051L3887.07 664.121L4041.57 513.208L3933.05 476.371L3722.77 690.774L3725.1 405.783L3632.49 374.346L3629.05 794.332L3721.66 825.769Z" fill="white"/>
<path d="M4260.34 915.361L4602.15 804.301V716.701L4355.06 796.983V715.383L4593.02 638.067V560.067L4355.06 637.383V552.183L4602.15 471.901V384.301L4260.34 495.361V915.361Z" fill="white"/>
<path d="M2940 408.648V1083.35L2364 891.351V216.648L2940 408.648ZM3540 891.351L2964 1083.35V408.648L3540 216.648V891.351ZM3514.05 200L2952 387.351L2389.95 200L2952 12.6484L3514.05 200Z" fill="#202020" stroke="white" stroke-width="24"/>
<path d="M2603.37 845.36L2697.69 877.376L2698.53 774.179L2878.97 517.756L2779.54 484.005L2654.44 662.946L2649.89 661.403L2528.41 398.759L2428.98 365.008L2604.22 742.164L2603.37 845.36Z" fill="white"/>
<path d="M3251.5 870.048C3387.88 825.734 3467.77 703.177 3467.77 580.777C3467.77 458.377 3387.88 387.734 3251.5 432.047C3115.12 476.361 3035.8 598.733 3035.8 721.133C3035.8 843.533 3115.12 914.361 3251.5 870.048ZM3131.67 689.984C3131.67 615.584 3173.32 548.049 3251.5 522.647C3330.25 497.061 3371.9 537.526 3371.9 611.926C3371.9 686.326 3330.25 753.861 3251.5 779.448C3173.32 804.849 3131.67 764.384 3131.67 689.984Z" fill="white"/>
<path d="M1764 408.648V1083.35L1188 891.351V216.648L1764 408.648ZM2364 891.351L1788 1083.35V408.648L2364 216.648V891.351ZM2338.05 200L1776 387.351L1213.95 200L1776 12.6484L2338.05 200Z" fill="#202020" stroke="white" stroke-width="24"/>
<path d="M1369.66 825.769L1479.94 717.604L1587.26 899.636L1697.49 937.051L1535.07 664.121L1689.57 513.208L1581.05 476.371L1370.77 690.774L1373.1 405.783L1280.49 374.346L1277.05 794.332L1369.66 825.769Z" fill="white"/>
<path d="M2025.08 457.429L1853.32 933.238L1952.04 901.162L1974.29 838.731L2178.58 772.354L2200.84 820.323L2299.56 788.247L2127.22 424.241L2025.08 457.429ZM2005.68 749.333L2076.44 551.143L2146.63 703.537L2005.68 749.333Z" fill="white"/>
<path d="M588 408.648V1083.35L12 891.351V216.648L588 408.648ZM1188 891.351L612 1083.35V408.648L1188 216.648V891.351ZM1162.05 200L600 387.351L37.9463 200L600 12.6484L1162.05 200Z" fill="#202020" stroke="white" stroke-width="24"/>
<path d="M114.169 798.786L208.483 830.801L209.285 733.005L331.439 774.47C442.23 812.079 489.395 757.696 490.143 666.499C490.891 575.302 444.873 489.889 334.082 452.281L117.614 378.8L114.169 798.786ZM210.009 644.808L211.205 499.012L322.564 536.814C373.698 554.171 396.218 587.085 395.829 634.484C395.43 683.082 372.502 699.967 321.368 682.609L210.009 644.808Z" fill="white"/>
<path d="M899.499 870.048C1035.88 825.734 1115.77 703.177 1115.77 580.777C1115.77 458.377 1035.88 387.734 899.499 432.047C763.117 476.361 683.799 598.733 683.799 721.133C683.799 843.533 763.117 914.361 899.499 870.048ZM779.666 689.984C779.666 615.584 821.322 548.049 899.499 522.647C978.246 497.061 1019.9 537.526 1019.9 611.926C1019.9 686.326 978.246 753.861 899.499 779.448C821.322 804.849 779.666 764.384 779.666 689.984Z" fill="white"/>
</svg>
